<mxfile host="app.diagrams.net" modified="2023-01-17T15:15:08.731Z" agent="5.0 (Windows NT 10.0; Win64; x64) AppleWebKit/537.36 (KHTML, like Gecko) Chrome/108.0.0.0 Safari/537.36" version="20.8.5" etag="r3CJ2f1Q0dRVY4IlyU61" type="github">
  <diagram id="si4Zz15qDfK0rvpO4tRJ" name="Page-1">
    <mxGraphModel dx="1797" dy="1110" grid="1" gridSize="10" guides="1" tooltips="1" connect="1" arrows="1" fold="1" page="1" pageScale="1" pageWidth="827" pageHeight="1169" math="0" shadow="0">
      <root>
        <mxCell id="0" />
        <mxCell id="1" parent="0" />
        <mxCell id="O6Fp-fISi3Y6gpxBGkrf-1" value="It worked to load me!" style="rounded=0;whiteSpace=wrap;html=1;" vertex="1" parent="1">
          <mxGeometry x="350" y="540" width="120" height="60" as="geometry" />
        </mxCell>
      </root>
    </mxGraphModel>
  </diagram>
</mxfile>
